<svg xmlns="http://www.w3.org/2000/svg" width="77" height="28" viewBox="0 0 77 28" fill="none"><path d="M10.9384 12.2686V9.67273H19.8551C19.9461 10.1307 20 10.6738 20 11.2639C20 13.2099 19.4539 15.6193 17.6928 17.3354C15.9801 19.0732 13.7936 20 10.892 20C5.51779 20 1 15.7369 1 10.5C1 5.26305 5.51779 1 10.892 1C13.8642 1 15.9801 2.135 17.5739 3.61757L15.6958 5.44769C14.5552 4.40501 13.0097 3.59404 10.892 3.59404C6.96862 3.59404 3.90164 6.67502 3.90164 10.5C3.90164 14.325 6.96862 17.406 10.892 17.406C13.4369 17.406 14.8859 16.4103 15.8147 15.5052C16.5708 14.7685 17.0686 13.7131 17.2618 12.2686H10.9384Z" fill="#4285F4"></path><path d="M33.5 14C33.5 17.4555 30.806 20 27.5 20C24.194 20 21.5 17.4537 21.5 14C21.5 10.5232 24.194 8 27.5 8C30.806 8 33.5 10.5232 33.5 14ZM30.8732 14C30.8732 11.8408 29.3113 10.3634 27.5 10.3634C25.6887 10.3634 24.1268 11.8408 24.1268 14C24.1268 16.1361 25.6887 17.6366 27.5 17.6366C29.3113 17.6384 30.8732 16.1379 30.8732 14Z" fill="#EA4335"></path><path d="M46.5 14C46.5 17.4555 43.806 20 40.5 20C37.194 20 34.5 17.4537 34.5 14C34.5 10.5232 37.194 8 40.5 8C43.806 8 46.5 10.5232 46.5 14ZM43.8732 14C43.8732 11.8408 42.3113 10.3634 40.5 10.3634C38.6887 10.3634 37.1268 11.8408 37.1268 14C37.1268 16.1361 38.6887 17.6366 40.5 17.6366C42.3113 17.6384 43.8732 16.1379 43.8732 14Z" fill="#FBBC05"></path><path d="M59.5 8.37496V19.5301C59.5 24.1178 56.7728 26 53.5472 26C50.5125 26 48.6857 23.9763 47.9984 22.3294L50.3939 21.3405C50.8201 22.3515 51.865 23.5517 53.5472 23.5517C55.6112 23.5517 56.8914 22.2816 56.8914 19.905V19.0117H56.7969C56.1799 19.7653 54.9942 20.4234 53.5009 20.4234C50.3698 20.4234 47.5 17.7178 47.5 14.2347C47.5 10.7295 50.3698 8 53.5009 8C54.9942 8 56.1799 8.65802 56.7969 9.38773H56.8914V8.37312H59.5V8.37496ZM57.0804 14.2365C57.0804 12.0474 55.6093 10.4483 53.7362 10.4483C51.839 10.4483 50.2494 12.0474 50.2494 14.2365C50.2494 16.4017 51.839 17.9769 53.7362 17.9769C55.6112 17.9788 57.0804 16.4017 57.0804 14.2365Z" fill="#4285F4"></path><path d="M63.5 2V20H60.5V2H63.5Z" fill="#34A853"></path><path d="M73.3543 15.9763L75.3871 17.34C74.7324 18.3167 73.1514 20 70.4182 20C67.0303 20 64.5 17.3631 64.5 14C64.5 10.4309 67.0515 8 70.1235 8C73.2185 8 74.7307 10.4771 75.2283 11.8177L75.5 12.4996L67.5261 15.8183C68.1367 17.0222 69.0842 17.6366 70.4164 17.6366C71.7504 17.6366 72.6768 16.976 73.3543 15.9763ZM67.0974 13.8171L72.428 11.5904C72.1351 10.8411 71.2528 10.3173 70.2153 10.3173C68.8813 10.3173 67.0303 11.4981 67.0974 13.8171Z" fill="#EA4335"></path></svg>